<?xml version="1.0" encoding="UTF-8" standalone="no"?>
<svg xmlns:rdf="http://www.w3.org/1999/02/22-rdf-syntax-ns#" xmlns="http://www.w3.org/2000/svg" viewBox="0 0 227.68511 209.23738" height="100%" width="100%" version="1.1" xmlns:cc="http://creativecommons.org/ns#" xmlns:xlink="http://www.w3.org/1999/xlink" xmlns:dc="http://purl.org/dc/elements/1.1/">
 <g transform="translate(-139.406 -295.274)">
  <g fill-rule="evenodd">
   <path d="m183.096 299.274h143.233l36.7625 36.94-0.36 3.04875-4.66125 4.8425s1.07625 3.94375-2.51 3.765c-3.5875-0.17875-1.615 4.6625-1.615 4.6625 1.435 2.33125-3.22625 6.635-3.40625 0.7175-0.18125-5.9175-1.435-2.33125-1.7925-1.255-0.36 1.07625-1.2575 4.66125-3.7675 6.635-2.51 1.9725-6.095 3.765-7.53 6.81375-1.43625 3.04875-20.2638 27.4365-29.0512 32.2774 0 0-1.07625 5.0215-11.835 14.5254 0 0-2.1525 1.97262-1.7925 4.124 0 0-0.71875 3.58737 0.3575 5.56012 1.07625 1.97263-2.69125 3.94525-2.69125 0 0-3.94537-2.50875-3.04937-4.1225-0.898-1.615 2.15188-3.945 3.76663-4.125 8.06988-0.18 4.30312-2.33125 7.71137-4.48375 4.30312 0 0-1.61125 8.07038-5.19875 14.3462 0 0-0.7175-0.896 0.5375 16.3194 1.255 17.2148-3.04875 11.476-2.33125 0.17862 0.71625-11.2974-2.51-13.0908-1.79375-0.71725 0.71875 12.374 0.35875 18.6499 0.71875 20.4419 0.3575 1.79487 1.9725 17.3955-1.0775 16.4995-3.04875-0.8975-1.255-21.5195-1.255-21.5195s1.61375-16.6772-0.17875-29.23c0 0-0.89625-5.73775-2.51125-0.17875 0 0-1.07625 7.17287-3.04875 1.43412 0 0-5.91788 5.73875-4.84125 10.7602 1.07625 5.0205 1.61375 7.88913-1.07663 7.88913-2.688 0-2.15-3.58588-1.07474-6.09663 1.07474-2.51075-0.17926-5.9175-2.87013 1.25538 0 0-0.8955 6.27737 0.53862 10.3999 1.4335 4.126 0.89688 8.96725-1.61387 8.96725-2.50975 0-2.86813-3.04925-1.61375-11.1186 1.25537-8.06975-0.17863-10.042-2.86913-12.5532 0 0-4.84175-2.15088-8.06975-10.04 0 0-1.97225 3.5845-4.30375-5.20263-2.33012-8.78612-3.586-1.25387-2.86862 0.71925 0 0-0.35887 4.84075-2.6895-0.18062-2.3315-5.02013-3.40675-10.938-9.68362-18.6495l-3.40675-5.19913s-8.07025 0.35788-16.498-18.6495c-8.42825-19.0086-8.42825-4.66262-8.42825-4.66262s1.43949 4.84087-2.15238 4.84087c0 0-2.7495 0.83588-0.59712-5.55862 2.15137-6.396-2.03275-4.66213-2.03275-4.66213-1.37451 0.29888-1.73338 0-1.07563-2.7495 0.65725-2.75037-1.87012-2.34662-2.39112-1.25537-0.6275 1.315-2.33101 10.0118-0.35838 21.0406 1.97262 11.0278-4.4825 10.311-2.86962 0.44775 1.61425-9.86337-0.35888-20.8009-0.35888-20.8009-0.59675-4.5725-0.837-10.79-6.8135-17.9625l-30.1416-33.2338 39.69-39.4512" fill="#ed1d29"/>
   <g fill="#f4ea18">
    <path d="m203.195 309.734s1.31487-1.37375 3.10837-0.06c1.79338 1.31625-1.01612 2.1525-1.73337 1.615-0.71688-0.53875-2.01763-0.7775-1.375-1.555"/>
    <path d="m195.126 311.408s-3.40675-3.3475-2.21099 2.0325c1.19537 5.38 2.689 3.52625 3.22762 3.16875 0.5375-0.35875 3.04825-3.16875 3.04825-3.16875 1.19538-1.195-0.0981-5.99875-2.63075-3.46625-0.82138 0.82125-1.43413 1.43375-1.43413 1.43375"/>
    <path d="m188.297 313.127s1.479-3.67625 2.73387-0.13375c1.25538 3.54125-1.43412 8.4725-1.56887 8.74125-0.13425 0.27-2.82413-2.37625-1.165-8.6075"/>
    <path d="m183.948 314.697s2.69 4.84125-1.07562 14.1662c-3.76525 9.325-5.918 5.2-6.09675 17.3938-0.17963 12.1938-4.48338 10.58-6.27688 5.55875-1.79287-5.02125-1.4345-18.8288 2.33163-19.725 3.76562-0.89625 1.97163-6.0975 1.97163-7.1725 0-1.07625 0-5.73875 5.02199-6.2775 5.0205-0.5375 2.68988-3.2275 2.51025-4.66125-0.17875-1.435 1.7935-1.435 1.61375 0.7175"/>
    <path d="m171.575 325.634s1.07563 5.02125-1.43412 3.76625c-2.51125-1.255 1.43412-3.76625 1.43412-3.76625"/>
    <path d="m166.733 331.373-0.35888 12.015s-0.71725 5.02-2.68937 1.435c-1.97325-3.5875-2.33163-13.0912 3.04825-13.45"/>
    <path d="m158.843 337.649 0.53813 1.61375-1.7935-0.5375 1.25537-1.07625"/>
    <path d="m188.79 373.155s7.88963-3.76625 6.99325 7.53125l-6.99325-7.53125"/>
    <path d="m198.472 383.018c0.962 4.32375 8.2495 10.9385 8.2495 10.9385s3.22812 4.48287 7.35212-1.43413c0 0 5.20063-13.4494-8.96537-17.5744 0 0-9.146-3.2275-6.63625 8.07"/>
    <path d="m219.454 387.143 0.71725-6.815s1.61375-4.30375 3.227-0.17875c1.61387 4.12375-3.76562 14.8829-3.94425 6.99375"/>
    <path d="m231.827 380.508s1.793-5.56 3.2275 0.17875c0 0 0.71687 2.68875 0 4.8425-0.71725 2.15125-2.69037 2.15125-3.04875 0.53625-0.35837-1.6125-0.17875-5.5575-0.17875-5.5575"/>
    <path d="m239.538 379.252s5.5585 1.97375 9.86225-0.17875c4.30275-2.1525 10.4005-0.89625 11.8355 2.68875 1.43375 3.5875 4.12375 13.4501-0.3575 18.4706-4.48438 5.02188-11.2982 0.5385-11.6571-0.17975-0.35851-0.71675-8.24863-10.0409-8.24863-10.0409s-4.125-4.4825-1.4345-10.76"/>
    <path d="m267.691 398.977s-3.2275-10.5802-0.35875-18.2902c2.87-7.71125 5.73875-2.33125 6.09625 0.89625 0.36 3.22875-0.17875 3.04875-0.89625 6.0975-0.71625 3.04837 0.53875 3.22762 2.33125 3.22762 1.79375 0 2.33125-2.33137 2.1525-3.58637-0.18-1.25625-3.2275-6.27625 0.89625-5.9175 4.125 0.3575 5.7375 1.7925 11.2975 1.07625 5.56-0.71875 11.8362 6.27625 5.2 11.1171-6.63375 4.84175-26.7188 5.37938-26.7188 5.37938"/>
    <path d="m255.139 439.683s-0.71725-17.0366 2.15137-20.4439c2.86838-3.40725 13.4496-6.4545 22.4146-7.53125l-24.566 27.9751"/>
    <path d="m251.014 444.167s2.689-14.3451 0-24.3886c-2.68938-10.0425 0 24.3886 0 24.3886"/>
    <path d="m245.635 436.993s3.5865-16.8555-6.99362-20.8009c-10.5806-3.94525-14.7046-4.124-14.7046-4.124l21.6982 24.9249"/>
    <path d="m289.03 310.033 14.8838-0.17875-6.63375 9.68375-8.25-9.505"/>
    <path d="m273.61 317.207s2.51-4.48375 3.585 1.07625c1.075 5.55875 1.61375 15.2425 0.7175 19.0075s-1.9725 7.17375-0.5375 7.89c0 0-2.51125 0.5375-3.4075-2.33125s-0.89625-7.35125-0.53875-10.4c0.36-3.04875 1.435-12.7325 0.18125-15.2425"/>
    <path d="m268.589 344.284s3.76375 1.255 3.2275-14.1675c-0.53875-15.42-1.61375-7.88875-2.69-3.765-1.07625 4.125-0.5375 17.9325-0.5375 17.9325"/>
    <path d="m261.594 346.077c2.87-0.7175 4.30375 1.79375 4.66375-6.63375 0.3575-8.42875 0-23.4925 0.89625-24.3888 0 0-0.35875-2.15125-2.51125-0.17875 0 0-3.76375-4.4825-4.12375 0.17875-0.36 4.6625-4.84313 3.76625-5.73862 0.7175-0.8965-3.04875-2.51026-2.51-3.76563-0.7175-1.25437 1.79375-4.66263 2.51125-5.37937-1.43375-0.71726-3.94625-10.7592-5.38-13.4493-3.04875-2.68987 2.33125-4.48337 3.04875-9.86275 4.125-5.37937 1.075-12.7319 6.09625-12.1939 15.0625 0.53812 8.96625 3.94487 13.6288 13.4492 15.4212 9.50437 1.7925 35.1465 1.61375 38.0152 0.89625"/>
    <path d="m280.424 345.359c30.6638 0 42.3212 19.9062 42.3212 19.9062l26.1788-26.54-0.1775-2.69-15.065-16.4975c-0.89625 2.86875-3.585 1.9725-4.84125-2.33125-1.25375-4.30375-7.3525-4.6625-2.51125 8.4275 4.8425 13.0912 1.2575 11.4775 0 10.76 0 0-5.38-3.4075-1.7925 11.835s-0.7175 12.1938-0.7175 12.1938c-3.585 0-2.15125-7.71125-2.15125-7.71125-4.66375-0.17875-2.1525-6.99375-2.1525-6.99375-1.61375 2.51125-1.61375 0.35875-4.12375-2.15125-2.51-2.51125-5.9175-3.2275-5.9175-3.2275-10.7588-4.84125-11.6562-1.07625-11.6562-1.07625s-0.5375 2.87-3.2275 2.87-3.5875-3.4075-3.5875-3.4075c-0.1775 2.15125-0.71625 1.9725-2.51 1.9725s-1.255-2.69-1.255-2.69c1.43375-4.6625-0.3575-9.325-0.3575-9.325-5.38-15.4212-7.71125-0.17875-7.71125-0.17875s-0.36 5.02125 0.895 8.6075c1.25625 3.58625-3.2275 8.2475 0.36 8.2475"/>
   </g>
  </g>
 </g>
</svg>
